<svg version="1.1" id="Camada_1" xmlns="http://www.w3.org/2000/svg" xmlns:xlink="http://www.w3.org/1999/xlink" x="0px" y="0px"
	 viewBox="295 -44.2 690.9 189.2" style="enable-background:new 295 -44.2 690.9 189.2;" xml:space="preserve">
<style type="text/css">
	.main-color .st0{fill:#3C3535;}
	.main-color .st1{fill:#AB2723;}
	.main-color .st2{fill:url(#SVGID_1_);}
	.main-color .st3{fill:#728529;}
	.main-color .st4{fill:url(#SVGID_2_);}
	.main-color .st5{fill:#ED7004;}
	.main-color .st6{fill:url(#SVGID_3_);}
	.main-color .st7{fill:#005F9F;}
	.main-color .st8{fill:url(#SVGID_4_);}
</style>
<g id="Camada_2">
	<g id="Camada_1-2">
		<path class="st0" d="M535.4,21.9c2.8,1.2,5.7,1.8,8.8,1.8c2.9,0.1,5.6-1.3,7.3-3.8c1.8-2.5,2.7-6.6,2.7-12.2v-41.8h19.4v47.7
			c0,3.7-0.4,7.3-1.3,10.9c-0.8,3.1-2.3,5.9-4.4,8.3c-2.2,2.4-5,4.3-8.1,5.3c-3.9,1.3-8.1,2-12.3,1.9c-1.8,0-3.6-0.2-5.3-0.5
			c-1.7-0.3-3.8-0.8-6.3-1.4l-0.4-0.1L535.4,21.9z M647.7,11c0,9.6-2.8,16.8-8.5,21.6s-13.5,7.2-23.4,7.3c-9.9,0-17.7-2.4-23.4-7.3
			s-8.5-12-8.5-21.6v-45.2h19.4V7.8c0,2.3,0.2,4.7,0.6,7c0.3,2,1,3.9,2,5.6c0.9,1.6,2.3,2.9,3.9,3.8c1.9,1,3.9,1.4,6,1.4
			c2.1,0.1,4.2-0.4,6.1-1.4c1.6-0.9,3-2.2,3.9-3.8c1-1.7,1.7-3.6,2-5.6c0.4-2.3,0.6-4.7,0.6-7v-41.9h19.4L647.7,11z M658.5-34.1
			h24.7l24.6,49.4h0.2l-0.3-49.4h17.7v72.8h-24.1l-25.5-49.8h-0.2l0.6,49.8h-17.8V-34.1z M749.7-19.7h-17.9v-14.4h55.3v14.4h-17.9
			v58.4h-19.4V-19.7z M799.8-25.4c6.2-6.7,15.3-10,27.1-10s20.9,3.3,27.1,10c6.3,6.7,9.4,15.9,9.4,27.7s-3.1,21-9.4,27.6
			c-6.3,6.7-15.3,10-27.1,10c-11.7,0-20.8-3.3-27.1-10c-6.3-6.7-9.4-15.9-9.4-27.6S793.6-18.7,799.8-25.4z M811.4,11.1
			c0.6,2.6,1.6,5.1,3,7.4c1.3,2.1,3.1,3.8,5.2,5.1c2.2,1.3,4.8,1.9,7.4,1.9c2.6,0.1,5.2-0.6,7.5-1.9c2.1-1.2,3.9-3,5.2-5.1
			c1.4-2.3,2.4-4.8,2.9-7.4c0.6-2.9,1-5.9,0.9-8.9c0-3-0.3-6.1-0.9-9.1c-0.6-2.6-1.6-5.1-2.9-7.5c-1.3-2.1-3-3.8-5.2-5
			c-2.3-1.2-4.9-1.8-7.5-1.8c-2.6-0.1-5.1,0.5-7.4,1.8c-2.1,1.2-3.9,2.9-5.2,5c-1.4,2.3-2.4,4.8-3,7.4c-0.6,3-1,6-0.9,9.1
			C810.4,5.2,810.7,8.2,811.4,11.1z M872.4,20.8c2.9,1.5,6,2.7,9.2,3.5c3.5,0.9,7.2,1.3,10.8,1.3c3,0.1,6-0.4,8.7-1.6
			c2.1-1,3.5-3.2,3.3-5.5c0.1-2.3-1.1-4.5-3.1-5.6c-3.1-1.7-6.4-3-9.8-4c-2.8-0.8-5.6-1.7-8.3-2.8c-2.3-0.9-4.4-2.2-6.4-3.7
			c-2.1-1.6-3.8-3.7-4.9-6.1c-1.3-2.9-2-6.1-1.9-9.3c-0.1-3.7,0.8-7.4,2.8-10.6c1.8-2.9,4.4-5.3,7.4-6.9c3.2-1.7,6.6-2.9,10.1-3.6
			c3.8-0.8,7.6-1.1,11.5-1.1c3.4,0,6.8,0.2,10.1,0.7c2.9,0.4,5.8,1.1,8.7,2l-1.3,15c-5.1-2.3-10.6-3.4-16.2-3.3
			c-1.5,0-3,0.1-4.4,0.2c-1.4,0.1-2.8,0.4-4.1,0.9c-1.2,0.4-2.3,1.1-3.2,2c-0.9,1-1.3,2.3-1.3,3.6c0,2,1.1,3.9,2.9,4.8
			c3,1.5,6.1,2.6,9.3,3.4c3.3,1,6.2,1.9,8.4,2.7c2.4,0.9,4.6,2.1,6.7,3.7c2.2,1.6,4,3.8,5.2,6.3c1.4,2.9,2,6.2,1.9,9.4
			c0.1,4-0.8,7.9-2.6,11.5c-1.7,3.1-4.1,5.6-7.1,7.5c-3.1,1.9-6.6,3.2-10.1,3.9c-4,0.8-8.1,1.2-12.2,1.2c-3.7,0-7.5-0.3-11.2-0.8
			c-3.6-0.5-7.1-1.3-10.5-2.3L872.4,20.8z M581.5,76.3c-4.7-2.1-9.7-3.1-14.8-3.1c-1.4,0-2.7,0.2-4.1,0.5c-1.3,0.3-2.5,0.9-3.7,1.7
			c-1.1,0.8-2.1,1.9-2.7,3.1c-0.7,1.5-1.1,3.1-1,4.8c-0.1,2.2,1,4.3,2.9,5.5c2.9,1.8,6,3.2,9.2,4.4c3.1,1.2,5.6,2.3,7.7,3.2
			c2.1,1,4.1,2.3,5.9,3.9c1.9,1.7,3.5,3.7,4.5,6c1.2,2.7,1.8,5.7,1.7,8.7c0.1,3.5-0.7,6.9-2.1,10c-1.3,2.8-3.4,5.1-5.9,6.9
			c-2.6,1.8-5.6,3.1-8.7,3.9c-3.5,0.9-7.1,1.3-10.6,1.3c-2.8,0-5.5-0.1-8.2-0.5c-2.2-0.4-5.1-1-8.9-1.9l-1.6-0.4l1.4-13.1
			c2.6,1.4,5.3,2.5,8.1,3.3c2.7,0.8,5.6,1.2,8.4,1.2c3.1,0,6.2-0.8,8.9-2.4c2.6-1.4,4.1-4,4.1-6.9c0.1-2.5-1-4.8-3.1-6.3
			c-3-1.9-6.3-3.5-9.6-4.7c-2.9-1.2-5.4-2.3-7.4-3.2c-2.1-1-4-2.3-5.7-3.8c-1.9-1.6-3.3-3.6-4.4-5.8c-1.2-2.6-1.7-5.5-1.7-8.4
			c-0.1-3.5,0.6-6.9,2.1-10.1c1.3-2.7,3.2-5.1,5.7-6.9c2.4-1.8,5.2-3.1,8.1-3.9c3.1-0.9,6.4-1.3,9.6-1.3c5.9-0.1,11.8,0.8,17.4,2.6
			L581.5,76.3z M604.1,71.8c6.2-6.8,15-10.2,26.3-10.2c5.2-0.1,10.3,0.8,15.1,2.7c4.3,1.7,8.1,4.3,11.2,7.7
			c3.1,3.5,5.5,7.5,6.9,11.9c1.6,4.9,2.5,10,2.4,15.1c0.1,5.2-0.7,10.3-2.3,15.2c-1.5,4.4-3.8,8.5-6.9,12c-3.1,3.4-6.9,6.1-11.2,7.9
			c-4.8,1.9-10,2.9-15.2,2.8c-11.4,0-20.2-3.4-26.4-10.3s-9.3-16.1-9.3-27.5C594.8,87.7,597.9,78.6,604.1,71.8L604.1,71.8z
			 M611.1,108.9c0.7,3,1.9,5.8,3.6,8.4c1.6,2.5,3.8,4.5,6.4,5.9c5.9,2.9,12.8,2.9,18.7,0c2.6-1.4,4.8-3.5,6.4-5.9
			c1.7-2.6,2.9-5.4,3.6-8.4c0.8-3.2,1.2-6.5,1.1-9.8c0-3.3-0.4-6.5-1.2-9.6c-0.7-3-2-5.8-3.7-8.3c-1.6-2.4-3.8-4.4-6.4-5.8
			c-5.7-2.9-12.5-2.9-18.3,0c-2.6,1.4-4.8,3.4-6.4,5.9c-1.7,2.6-2.9,5.4-3.7,8.4c-0.8,3.1-1.2,6.4-1.2,9.6
			C610,102.4,610.3,105.7,611.1,108.9L611.1,108.9z M677.4,62.9h23.4l17.3,55.2h0.2l17.3-55.2h23.4v72.8H745V75.6h-0.2l-19.7,60.1
			h-14l-19.6-60.1l-0.2,0.2v59.9h-14L677.4,62.9z M779.5,71.8c6.2-6.8,15-10.2,26.3-10.2c5.2-0.1,10.3,0.8,15.1,2.7
			c4.3,1.7,8.1,4.3,11.2,7.7c3.1,3.5,5.5,7.5,6.9,11.9c1.6,4.9,2.5,10,2.4,15.1c0.1,5.2-0.7,10.3-2.3,15.2c-1.5,4.4-3.8,8.5-6.9,12
			c-3.1,3.5-6.9,6.1-11.2,7.9c-4.8,1.9-10,2.9-15.2,2.8c-11.4,0-20.2-3.4-26.4-10.3s-9.3-16.1-9.3-27.5
			C770.2,87.7,773.3,78.6,779.5,71.8L779.5,71.8z M786.5,108.9c0.7,3,1.9,5.9,3.6,8.4c1.6,2.5,3.8,4.5,6.4,5.9
			c5.9,2.9,12.8,2.9,18.7,0c2.6-1.4,4.8-3.5,6.4-5.9c1.7-2.6,2.9-5.4,3.6-8.4c0.8-3.2,1.2-6.5,1.2-9.8c0-3.3-0.4-6.5-1.2-9.6
			c-0.7-3-2-5.8-3.7-8.3c-1.6-2.4-3.8-4.4-6.4-5.8c-5.7-2.9-12.5-2.9-18.3,0c-2.6,1.4-4.8,3.4-6.4,5.9c-1.7,2.6-2.9,5.4-3.7,8.4
			c-0.8,3.1-1.2,6.4-1.2,9.6C785.4,102.4,785.8,105.7,786.5,108.9L786.5,108.9z M891.9,76.3c-4.7-2.1-9.7-3.1-14.8-3.1
			c-1.4,0-2.7,0.2-4.1,0.5c-1.3,0.3-2.5,0.9-3.7,1.7c-1.1,0.8-2.1,1.9-2.7,3.1c-0.7,1.5-1.1,3.1-1,4.8c-0.1,2.2,1,4.3,2.9,5.5
			c2.9,1.8,6,3.2,9.2,4.4c3.1,1.2,5.6,2.3,7.7,3.2c2.1,1,4.1,2.3,5.9,3.9c1.9,1.7,3.5,3.7,4.5,6c1.2,2.7,1.8,5.7,1.7,8.7
			c0.1,3.5-0.7,6.9-2.1,10c-1.3,2.8-3.4,5.1-5.9,6.9c-2.6,1.8-5.6,3.1-8.7,3.9c-3.5,0.9-7.1,1.3-10.6,1.3c-2.8,0-5.5-0.1-8.2-0.5
			c-2.2-0.4-5.1-1-8.9-1.9l-1.6-0.4l1.4-13.1c2.6,1.4,5.3,2.5,8.1,3.3c2.7,0.8,5.6,1.2,8.4,1.2c3.1,0,6.2-0.8,8.9-2.4
			c2.6-1.4,4.1-4,4.1-6.9c0.1-2.5-1-4.8-3.1-6.3c-3-1.9-6.3-3.5-9.7-4.7c-2.9-1.2-5.4-2.3-7.4-3.2c-2.1-1-4-2.3-5.7-3.8
			c-1.9-1.6-3.3-3.6-4.4-5.8c-1.2-2.6-1.7-5.5-1.7-8.4c-0.1-3.5,0.6-6.9,2-10.1c1.3-2.7,3.2-5.1,5.7-6.9c2.4-1.8,5.2-3.1,8.1-3.9
			c3.1-0.9,6.4-1.3,9.6-1.3c5.9-0.1,11.8,0.8,17.4,2.6L891.9,76.3z"/>
		<circle class="st1" cx="313.3" cy="125.8" r="18.3"/>
		<path class="st1" d="M382.6,81.7v49.1c0,12.5-9,17.8-19.9,11.8l-28.3-36.1l41.6-40.5C380.3,70.1,382.6,75.8,382.6,81.7z"/>

			<linearGradient id="SVGID_1_" gradientUnits="userSpaceOnUse" x1="360.9603" y1="10.9131" x2="312.7003" y2="48.9231" gradientTransform="matrix(1 0 0 -1 0 101.52)">
			<stop  offset="0" style="stop-color:#C93F2B"/>
			<stop  offset="1" style="stop-color:#AB2723"/>
		</linearGradient>
		<path class="st2" d="M310.9,59H360c6.1,0,11.9,2.5,16.2,6.8l-41.7,40.5l-35.4-27.5C293.1,67.9,298.4,59,310.9,59z"/>
		<path class="st3" d="M451-25.8c0,10.1,8.2,18.3,18.3,18.3s18.3-8.2,18.3-18.3S479.3-44,469.3-44c0,0,0,0,0,0
			C459.2-44,451-35.8,451-25.8C451-25.8,451-25.8,451-25.8z M419.8-41.8c-10.9-6-19.9-0.7-19.9,11.8v49.1c0,6.1,2.5,12,6.9,16.3
			l40.9-41.2L419.8-41.8z"/>

			<linearGradient id="SVGID_2_" gradientUnits="userSpaceOnUse" x1="407.38" y1="110.65" x2="470.74" y2="47.29" gradientTransform="matrix(1 0 0 -1 0 101.52)">
			<stop  offset="0" style="stop-color:#9CB71E"/>
			<stop  offset="0.36" style="stop-color:#879E23"/>
			<stop  offset="0.74" style="stop-color:#788C28"/>
			<stop  offset="1" style="stop-color:#728529"/>
		</linearGradient>
		<path class="st4" d="M483.4,21.9L447.7-5.9l-40.9,41.2c4.2,4.1,9.9,6.4,15.8,6.4h49.1C484.1,41.8,489.4,32.8,483.4,21.9z"/>
		<circle class="st5" cx="468.8" cy="125.8" r="18.3"/>
		<path class="st5" d="M424.2,59h49.1c12.5,0,17.8,8.9,11.8,19.9l-36.3,28.4l-40.9-41.2C412.1,61.6,418,59,424.2,59L424.2,59z"/>

			<linearGradient id="SVGID_3_" gradientUnits="userSpaceOnUse" x1="371.2264" y1="-54.957" x2="433.6164" y2="20.133" gradientTransform="matrix(1 0 0 -1 0 101.52)">
			<stop  offset="0" style="stop-color:#ED7004"/>
			<stop  offset="1" style="stop-color:#F59A2D"/>
		</linearGradient>
		<path class="st6" d="M448.8,107.3l-27.4,35.2c-10.9,6-19.9,0.7-19.9-11.8V81.7c0-5.8,2.3-11.4,6.3-15.6L448.8,107.3z"/>
		<path class="st7" d="M297.1-25.8c0,10.1,8.2,18.3,18.3,18.3s18.3-8.2,18.3-18.3S325.4-44,315.3-44c0,0,0,0,0,0
			C305.3-44,297.1-35.8,297.1-25.8z"/>

			<linearGradient id="SVGID_4_" gradientUnits="userSpaceOnUse" x1="357.5933" y1="89.9249" x2="388.2133" y2="131.5149" gradientTransform="matrix(1 0 0 -1 0 101.52)">
			<stop  offset="0" style="stop-color:#0BBBEF"/>
			<stop  offset="1" style="stop-color:#005F9F"/>
		</linearGradient>
		<path class="st8" d="M382.6,19.1V-30c0-12.5-9-17.8-19.9-11.8l-29,36.9l41.6,40.5C380,31.4,382.6,25.4,382.6,19.1z"/>
		<path class="st7" d="M333.8-4.9l-34.6,26.8c-6,10.9-0.7,19.9,11.8,19.9H360c5.7,0,11.3-2.2,15.4-6.1L333.8-4.9z"/>
		<path class="st0" d="M911.3,88.2h28v-28h18.6v28h28v18.5h-28v28h-18.6v-28h-28V88.2z"/>
	</g>
</g>
</svg>
